<svg xmlns="http://www.w3.org/2000/svg" width="1360" height="550" viewBox="0 0 1360 550"><style>
  text { font-family: Menlo, Monaco, Consolas, "Liberation Mono", monospace; fill: #1F2937; }
  .title { font-size: 24px; font-weight: 700; }
  .subtitle { font-size: 13px; fill: #4B5563; }
  .panel-title { font-size: 18px; font-weight: 700; }
  .label { font-size: 12px; }
  .value { font-size: 11px; }
  .legend { font-size: 12px; }
</style><rect width="100%" height="100%" fill="#FAFAF8"/><text x="40" y="32" class="title">Amber Framework Performance Progress</text><text x="40" y="54" class="subtitle">Normalized to the original framework-lab baseline for each compiler. Longer bars are better.</text><rect x="40" y="72" width="14" height="14" rx="3" fill="#B0B7C3"/><text x="62" y="84" class="legend">Baseline</text><rect x="190" y="72" width="14" height="14" rx="3" fill="#D39B2A"/><text x="212" y="84" class="legend">Winner Set</text><rect x="340" y="72" width="14" height="14" rx="3" fill="#2E9D65"/><text x="362" y="84" class="legend">Round 2</text><rect x="40" y="110" width="620" height="470" rx="16" fill="#FFFFFF" stroke="#E5E7EB"/><text x="60" y="138" class="panel-title">Crystal</text><text x="60" y="190" class="label">Controller query params</text><rect x="290" y="198" width="154.76002865569075" height="12" rx="6" fill="#B0B7C3"/><text x="452.76002865569075" y="208" class="value">Baseline: 1.00x | 184k</text><rect x="290" y="214" width="158.62449200000273" height="12" rx="6" fill="#D39B2A"/><text x="456.62449200000276" y="224" class="value">Winner Set: 1.02x | 189k</text><rect x="290" y="230" width="182.51836599603493" height="12" rx="6" fill="#2E9D65"/><text x="480.51836599603496" y="240" class="value">Round 2: 1.18x | 217k</text><text x="60" y="254" class="label">Params lookup query</text><rect x="290" y="262" width="154.76002865569075" height="12" rx="6" fill="#B0B7C3"/><text x="452.76002865569075" y="272" class="value">Baseline: 1.00x | 831k</text><rect x="290" y="278" width="202.33912022471605" height="12" rx="6" fill="#D39B2A"/><text x="500.33912022471605" y="288" class="value">Winner Set: 1.31x | 1.09M</text><rect x="290" y="294" width="216.71899324519507" height="12" rx="6" fill="#2E9D65"/><text x="514.7189932451951" y="304" class="value">Round 2: 1.40x | 1.16M</text><text x="60" y="318" class="label">Params lookup JSON body</text><rect x="290" y="326" width="154.76002865569075" height="12" rx="6" fill="#B0B7C3"/><text x="452.76002865569075" y="336" class="value">Baseline: 1.00x | 485k</text><rect x="290" y="342" width="280.4241906325346" height="12" rx="6" fill="#D39B2A"/><text x="578.4241906325346" y="352" class="value">Winner Set: 1.81x | 879k</text><rect x="290" y="358" width="320.0" height="12" rx="6" fill="#2E9D65"/><text x="618.0" y="368" class="value">Round 2: 2.07x | 1.00M</text><text x="60" y="382" class="label">Dispatch JSON body</text><rect x="290" y="390" width="154.76002865569075" height="12" rx="6" fill="#B0B7C3"/><text x="452.76002865569075" y="400" class="value">Baseline: 1.00x | 157k</text><rect x="290" y="406" width="184.6375909106485" height="12" rx="6" fill="#D39B2A"/><text x="482.6375909106485" y="416" class="value">Winner Set: 1.19x | 188k</text><rect x="290" y="422" width="186.56716598415602" height="12" rx="6" fill="#2E9D65"/><text x="484.567165984156" y="432" class="value">Round 2: 1.21x | 189k</text><text x="60" y="446" class="label">Dispatch plaintext</text><rect x="290" y="454" width="154.76002865569075" height="12" rx="6" fill="#B0B7C3"/><text x="452.76002865569075" y="464" class="value">Baseline: 1.00x | 225k</text><rect x="290" y="470" width="172.3288757224968" height="12" rx="6" fill="#D39B2A"/><text x="470.32887572249683" y="480" class="value">Winner Set: 1.11x | 250k</text><rect x="290" y="486" width="193.3798035254064" height="12" rx="6" fill="#2E9D65"/><text x="491.3798035254064" y="496" class="value">Round 2: 1.25x | 281k</text><text x="60" y="510" class="label">Dispatch JSON</text><rect x="290" y="518" width="154.76002865569075" height="12" rx="6" fill="#B0B7C3"/><text x="452.76002865569075" y="528" class="value">Baseline: 1.00x | 225k</text><rect x="290" y="534" width="146.80951344583087" height="12" rx="6" fill="#D39B2A"/><text x="444.8095134458309" y="544" class="value">Winner Set: 0.95x | 214k</text><rect x="290" y="550" width="178.154058330907" height="12" rx="6" fill="#2E9D65"/><text x="476.154058330907" y="560" class="value">Round 2: 1.15x | 259k</text><rect x="680" y="110" width="620" height="470" rx="16" fill="#FFFFFF" stroke="#E5E7EB"/><text x="700" y="138" class="panel-title">ACrystal</text><text x="700" y="190" class="label">Controller query params</text><rect x="930" y="198" width="154.76002865569075" height="12" rx="6" fill="#B0B7C3"/><text x="1092.7600286556908" y="208" class="value">Baseline: 1.00x | 206k</text><rect x="930" y="214" width="152.1084767254548" height="12" rx="6" fill="#D39B2A"/><text x="1090.1084767254547" y="224" class="value">Winner Set: 0.98x | 202k</text><rect x="930" y="230" width="174.23131708933124" height="12" rx="6" fill="#2E9D65"/><text x="1112.2313170893312" y="240" class="value">Round 2: 1.13x | 231k</text><text x="700" y="254" class="label">Params lookup query</text><rect x="930" y="262" width="154.76002865569075" height="12" rx="6" fill="#B0B7C3"/><text x="1092.7600286556908" y="272" class="value">Baseline: 1.00x | 884k</text><rect x="930" y="278" width="193.11709320231205" height="12" rx="6" fill="#D39B2A"/><text x="1131.117093202312" y="288" class="value">Winner Set: 1.25x | 1.10M</text><rect x="930" y="294" width="208.6004305967474" height="12" rx="6" fill="#2E9D65"/><text x="1146.6004305967474" y="304" class="value">Round 2: 1.35x | 1.19M</text><text x="700" y="318" class="label">Params lookup JSON body</text><rect x="930" y="326" width="154.76002865569075" height="12" rx="6" fill="#B0B7C3"/><text x="1092.7600286556908" y="336" class="value">Baseline: 1.00x | 508k</text><rect x="930" y="342" width="269.74520151696856" height="12" rx="6" fill="#D39B2A"/><text x="1207.7452015169686" y="352" class="value">Winner Set: 1.74x | 885k</text><rect x="930" y="358" width="310.4830627460069" height="12" rx="6" fill="#2E9D65"/><text x="1248.483062746007" y="368" class="value">Round 2: 2.01x | 1.02M</text><text x="700" y="382" class="label">Dispatch JSON body</text><rect x="930" y="390" width="154.76002865569075" height="12" rx="6" fill="#B0B7C3"/><text x="1092.7600286556908" y="400" class="value">Baseline: 1.00x | 161k</text><rect x="930" y="406" width="162.9194043888997" height="12" rx="6" fill="#D39B2A"/><text x="1100.9194043888997" y="416" class="value">Winner Set: 1.05x | 169k</text><rect x="930" y="422" width="300.032688361729" height="12" rx="6" fill="#2E9D65"/><text x="1238.032688361729" y="432" class="value">Round 2: 1.94x | 311k</text><text x="700" y="446" class="label">Dispatch plaintext</text><rect x="930" y="454" width="154.76002865569075" height="12" rx="6" fill="#B0B7C3"/><text x="1092.7600286556908" y="464" class="value">Baseline: 1.00x | 298k</text><rect x="930" y="470" width="139.0712101607321" height="12" rx="6" fill="#D39B2A"/><text x="1077.071210160732" y="480" class="value">Winner Set: 0.90x | 268k</text><rect x="930" y="486" width="155.17040762587686" height="12" rx="6" fill="#2E9D65"/><text x="1093.1704076258768" y="496" class="value">Round 2: 1.00x | 298k</text><text x="700" y="510" class="label">Dispatch JSON</text><rect x="930" y="518" width="154.76002865569075" height="12" rx="6" fill="#B0B7C3"/><text x="1092.7600286556908" y="528" class="value">Baseline: 1.00x | 198k</text><rect x="930" y="534" width="153.64190368318077" height="12" rx="6" fill="#D39B2A"/><text x="1091.6419036831808" y="544" class="value">Winner Set: 0.99x | 196k</text><rect x="930" y="550" width="217.65588108862912" height="12" rx="6" fill="#2E9D65"/><text x="1155.655881088629" y="560" class="value">Round 2: 1.41x | 278k</text></svg>
